<svg width="2806" height="1782" xmlns="http://www.w3.org/2000/svg" xmlns:xlink="http://www.w3.org/1999/xlink" xml:space="preserve" overflow="hidden"><g transform="translate(-4630 634)"><path d="M5311.5 752C4943.4 752 4645 445.091 4645 66.4998 4645-312.091 4943.4-619 5311.5-619 5528.5-619 5731.91-510.353 5856.72-327.784L5548.66-105.006C5459.83-244.67 5281.64-281.104 5150.66-186.384 5019.68-91.6641 4985.51 98.3415 5074.34 238.005 5127.67 321.847 5216.5 372.056 5311.5 372.056Z" stroke="#000000" stroke-width="29.7917" stroke-miterlimit="8" fill="none" fill-rule="evenodd"/><text font-family="Arista 2.0 Light,Arista 2.0 Light_MSFontService,sans-serif" font-weight="300" font-size="527" transform="matrix(1 0 0 1 5161.79 327)">URIO</text><text font-family="Arista 2.0 Light,Arista 2.0 Light_MSFontService,sans-serif" font-weight="300" font-size="527" transform="matrix(1 0 0 1 6033.2 327)"> </text><text font-family="Arista 2.0 Light,Arista 2.0 Light_MSFontService,sans-serif" font-weight="300" font-size="527" transform="matrix(1 0 0 1 5381.79 706)">TENSITY</text><text font-family="Arista 2.0 Light,Arista 2.0 Light_MSFontService,sans-serif" font-weight="300" font-size="527" transform="matrix(1 0 0 1 6983.1 706)"> </text></g></svg>